<mxfile host="app.diagrams.net" agent="Mozilla/5.0 (Windows NT 10.0; Win64; x64) AppleWebKit/537.36 (KHTML, like Gecko) Chrome/135.0.0.0 Safari/537.36" version="26.2.14">
  <diagram name="Page-1" id="Y8xfSp3IcK6OPjVmubx5">
    <mxGraphModel dx="1387" dy="837" grid="0" gridSize="10" guides="1" tooltips="1" connect="1" arrows="1" fold="1" page="0" pageScale="1" pageWidth="827" pageHeight="1169" math="0" shadow="0">
      <root>
        <mxCell id="0" />
        <mxCell id="1" parent="0" />
        <mxCell id="HMDpxjN7vBR4U1d9ihCM-2" value="" style="shape=mxgraph.cisco.computers_and_peripherals.laptop;html=1;pointerEvents=1;dashed=0;fillColor=#036897;strokeColor=#ffffff;strokeWidth=2;verticalLabelPosition=bottom;verticalAlign=top;align=center;outlineConnect=0;" vertex="1" parent="1">
          <mxGeometry x="201" y="180" width="90" height="61" as="geometry" />
        </mxCell>
        <mxCell id="HMDpxjN7vBR4U1d9ihCM-3" value="" style="shape=mxgraph.cisco.computers_and_peripherals.laptop;html=1;pointerEvents=1;dashed=0;fillColor=#036897;strokeColor=#ffffff;strokeWidth=2;verticalLabelPosition=bottom;verticalAlign=top;align=center;outlineConnect=0;" vertex="1" parent="1">
          <mxGeometry x="379" y="180" width="90" height="61" as="geometry" />
        </mxCell>
        <mxCell id="HMDpxjN7vBR4U1d9ihCM-4" value="&lt;font style=&quot;font-size: 14px;&quot;&gt;Sales /Mkt&lt;/font&gt;&lt;div&gt;&lt;font style=&quot;font-size: 14px;&quot;&gt;&amp;nbsp;VLAN 20&lt;/font&gt;&lt;div&gt;&lt;font style=&quot;font-size: 14px;&quot;&gt;192.168.30.64/26&lt;/font&gt;&lt;/div&gt;&lt;/div&gt;" style="text;strokeColor=none;fillColor=none;html=1;align=center;verticalAlign=middle;whiteSpace=wrap;rounded=0;fontSize=16;" vertex="1" parent="1">
          <mxGeometry x="184" y="256" width="156" height="30" as="geometry" />
        </mxCell>
        <mxCell id="HMDpxjN7vBR4U1d9ihCM-5" value="&lt;font style=&quot;font-size: 14px;&quot;&gt;Conference&lt;/font&gt;&lt;div&gt;&lt;font style=&quot;font-size: 14px;&quot;&gt;&amp;nbsp;VLAN 50&lt;/font&gt;&lt;/div&gt;&lt;div&gt;&lt;font style=&quot;font-size: 14px;&quot;&gt;192.168.30.168/29&lt;/font&gt;&lt;/div&gt;" style="text;strokeColor=none;fillColor=none;html=1;align=center;verticalAlign=middle;whiteSpace=wrap;rounded=0;fontSize=16;" vertex="1" parent="1">
          <mxGeometry x="405" y="184" width="220" height="60" as="geometry" />
        </mxCell>
        <mxCell id="HMDpxjN7vBR4U1d9ihCM-6" value="" style="shape=mxgraph.cisco.routers.router;html=1;pointerEvents=1;dashed=0;fillColor=#036897;strokeColor=#ffffff;strokeWidth=2;verticalLabelPosition=bottom;verticalAlign=top;align=center;outlineConnect=0;" vertex="1" parent="1">
          <mxGeometry x="272" y="345" width="78" height="53" as="geometry" />
        </mxCell>
        <mxCell id="HMDpxjN7vBR4U1d9ihCM-10" value="" style="shape=mxgraph.cisco.computers_and_peripherals.laptop;html=1;pointerEvents=1;dashed=0;fillColor=#036897;strokeColor=#ffffff;strokeWidth=2;verticalLabelPosition=bottom;verticalAlign=top;align=center;outlineConnect=0;" vertex="1" parent="1">
          <mxGeometry x="295" y="42" width="90" height="61" as="geometry" />
        </mxCell>
        <mxCell id="HMDpxjN7vBR4U1d9ihCM-11" value="&lt;font style=&quot;font-size: 14px;&quot;&gt;Development&lt;/font&gt;&lt;div&gt;&lt;font style=&quot;font-size: 14px;&quot;&gt;VLAN 10&lt;/font&gt;&lt;/div&gt;&lt;div&gt;&lt;font style=&quot;font-size: 14px;&quot;&gt;192.168.30.0/26&lt;/font&gt;&lt;/div&gt;" style="text;strokeColor=none;fillColor=none;html=1;align=center;verticalAlign=middle;whiteSpace=wrap;rounded=0;fontSize=16;" vertex="1" parent="1">
          <mxGeometry x="303" y="117" width="104" height="30" as="geometry" />
        </mxCell>
        <mxCell id="HMDpxjN7vBR4U1d9ihCM-19" value="" style="image;aspect=fixed;perimeter=ellipsePerimeter;html=1;align=center;shadow=0;dashed=0;spacingTop=3;image=img/lib/active_directory/internet_cloud.svg;" vertex="1" parent="1">
          <mxGeometry x="609" y="335.5" width="115.87" height="73" as="geometry" />
        </mxCell>
        <mxCell id="HMDpxjN7vBR4U1d9ihCM-20" value="Internet" style="text;strokeColor=none;fillColor=none;html=1;align=center;verticalAlign=middle;whiteSpace=wrap;rounded=0;fontSize=16;" vertex="1" parent="1">
          <mxGeometry x="633" y="408.5" width="60" height="30" as="geometry" />
        </mxCell>
        <mxCell id="HMDpxjN7vBR4U1d9ihCM-21" value="" style="shape=mxgraph.cisco.routers.router;html=1;pointerEvents=1;dashed=0;fillColor=#036897;strokeColor=#ffffff;strokeWidth=2;verticalLabelPosition=bottom;verticalAlign=top;align=center;outlineConnect=0;" vertex="1" parent="1">
          <mxGeometry x="422" y="345" width="78" height="53" as="geometry" />
        </mxCell>
        <mxCell id="HMDpxjN7vBR4U1d9ihCM-22" value="Firewall Router (ZPF)" style="text;strokeColor=none;fillColor=none;html=1;align=center;verticalAlign=middle;whiteSpace=wrap;rounded=0;fontSize=16;" vertex="1" parent="1">
          <mxGeometry x="411" y="401" width="108" height="30" as="geometry" />
        </mxCell>
        <mxCell id="HMDpxjN7vBR4U1d9ihCM-23" value="Main Router" style="text;html=1;align=center;verticalAlign=middle;resizable=0;points=[];autosize=1;strokeColor=none;fillColor=none;fontSize=16;" vertex="1" parent="1">
          <mxGeometry x="257.5" y="400" width="105" height="31" as="geometry" />
        </mxCell>
        <mxCell id="HMDpxjN7vBR4U1d9ihCM-24" value="" style="endArrow=none;html=1;rounded=0;fontSize=12;startSize=8;endSize=8;curved=1;exitX=1;exitY=0.5;exitDx=0;exitDy=0;exitPerimeter=0;entryX=0;entryY=0.5;entryDx=0;entryDy=0;entryPerimeter=0;strokeWidth=3;" edge="1" parent="1" source="HMDpxjN7vBR4U1d9ihCM-6" target="HMDpxjN7vBR4U1d9ihCM-21">
          <mxGeometry width="50" height="50" relative="1" as="geometry">
            <mxPoint x="578" y="317.5" as="sourcePoint" />
            <mxPoint x="628" y="267.5" as="targetPoint" />
          </mxGeometry>
        </mxCell>
        <mxCell id="HMDpxjN7vBR4U1d9ihCM-26" value="" style="endArrow=none;html=1;rounded=0;fontSize=12;startSize=8;endSize=8;curved=1;exitX=1;exitY=0.5;exitDx=0;exitDy=0;exitPerimeter=0;entryX=0;entryY=0.5;entryDx=0;entryDy=0;strokeWidth=3;" edge="1" parent="1" source="HMDpxjN7vBR4U1d9ihCM-21" target="HMDpxjN7vBR4U1d9ihCM-19">
          <mxGeometry width="50" height="50" relative="1" as="geometry">
            <mxPoint x="580" y="327.5" as="sourcePoint" />
            <mxPoint x="630" y="277.5" as="targetPoint" />
          </mxGeometry>
        </mxCell>
        <mxCell id="HMDpxjN7vBR4U1d9ihCM-27" value="Blocked (Sales cannot reach Dev)" style="text;whiteSpace=wrap;" vertex="1" parent="1">
          <mxGeometry x="144" y="122" width="107" height="36" as="geometry" />
        </mxCell>
        <mxCell id="HMDpxjN7vBR4U1d9ihCM-28" style="edgeStyle=none;curved=1;rounded=0;orthogonalLoop=1;jettySize=auto;html=1;exitX=0.5;exitY=0;exitDx=0;exitDy=0;exitPerimeter=0;entryX=0;entryY=1;entryDx=0;entryDy=0;entryPerimeter=0;fontSize=12;startSize=8;endSize=8;fillColor=#f8cecc;strokeColor=#b85450;strokeWidth=3;" edge="1" parent="1" source="HMDpxjN7vBR4U1d9ihCM-2" target="HMDpxjN7vBR4U1d9ihCM-10">
          <mxGeometry relative="1" as="geometry" />
        </mxCell>
        <mxCell id="HMDpxjN7vBR4U1d9ihCM-29" value="Blocked (Cannot reach internal VLANs)" style="text;whiteSpace=wrap;" vertex="1" parent="1">
          <mxGeometry x="353" y="282" width="111.13" height="36" as="geometry" />
        </mxCell>
        <mxCell id="HMDpxjN7vBR4U1d9ihCM-31" value="" style="endArrow=none;html=1;rounded=0;fontSize=12;startSize=8;endSize=8;curved=1;entryX=0.5;entryY=0;entryDx=0;entryDy=0;entryPerimeter=0;exitX=0;exitY=1;exitDx=0;exitDy=0;exitPerimeter=0;strokeWidth=3;fillColor=#f8cecc;strokeColor=#b85450;" edge="1" parent="1" source="HMDpxjN7vBR4U1d9ihCM-3" target="HMDpxjN7vBR4U1d9ihCM-6">
          <mxGeometry width="50" height="50" relative="1" as="geometry">
            <mxPoint x="114" y="474" as="sourcePoint" />
            <mxPoint x="164" y="424" as="targetPoint" />
          </mxGeometry>
        </mxCell>
        <mxCell id="HMDpxjN7vBR4U1d9ihCM-34" value="" style="endArrow=none;html=1;rounded=0;fontSize=12;startSize=8;endSize=8;curved=1;entryX=0;entryY=0.5;entryDx=0;entryDy=0;entryPerimeter=0;strokeWidth=3;" edge="1" parent="1" target="HMDpxjN7vBR4U1d9ihCM-6">
          <mxGeometry width="50" height="50" relative="1" as="geometry">
            <mxPoint x="201" y="372" as="sourcePoint" />
            <mxPoint x="94" y="379" as="targetPoint" />
          </mxGeometry>
        </mxCell>
        <mxCell id="HMDpxjN7vBR4U1d9ihCM-35" value="" style="endArrow=none;html=1;rounded=0;fontSize=12;startSize=8;endSize=8;curved=1;exitX=0;exitY=1;exitDx=0;exitDy=0;exitPerimeter=0;strokeWidth=3;" edge="1" parent="1" source="HMDpxjN7vBR4U1d9ihCM-2">
          <mxGeometry width="50" height="50" relative="1" as="geometry">
            <mxPoint x="210" y="384" as="sourcePoint" />
            <mxPoint x="201" y="372" as="targetPoint" />
          </mxGeometry>
        </mxCell>
        <mxCell id="HMDpxjN7vBR4U1d9ihCM-36" style="edgeStyle=none;curved=1;rounded=0;orthogonalLoop=1;jettySize=auto;html=1;exitX=0.5;exitY=1;exitDx=0;exitDy=0;fontSize=12;startSize=8;endSize=8;" edge="1" parent="1" source="HMDpxjN7vBR4U1d9ihCM-27" target="HMDpxjN7vBR4U1d9ihCM-27">
          <mxGeometry relative="1" as="geometry" />
        </mxCell>
      </root>
    </mxGraphModel>
  </diagram>
</mxfile>
